<?xml version="1.0" encoding="UTF-8"?>
<svg width="885px" height="247px" viewBox="0 0 885 247" version="1.1" xmlns="http://www.w3.org/2000/svg" xmlns:xlink="http://www.w3.org/1999/xlink">
    <!-- Generator: Sketch 47.1 (45422) - http://www.bohemiancoding.com/sketch -->
    <title>Group</title>
    <desc>Created with Sketch.</desc>
    <defs></defs>
    <g id="Page-1" stroke="none" stroke-width="1" fill="none" fill-rule="evenodd">
        <g id="Artboard" transform="translate(-153.000000, -521.000000)">
            <g id="Group" transform="translate(153.000000, 521.000000)">
                <path d="M397.395508,98.2050781 C399.397471,98.2050781 401.301749,97.9121123 403.108398,97.3261719 C404.915048,96.7402314 406.501946,95.9101616 407.869141,94.8359375 C409.236335,93.7617134 410.298336,92.467781 411.055176,90.9541016 C411.812016,89.4404221 412.141602,87.7558687 412.043945,85.9003906 L431.233398,85.9003906 C431.331055,90.0019736 430.488778,93.8105293 428.706543,97.3261719 C426.924307,100.841814 424.495133,103.869128 421.418945,106.408203 C418.342758,108.947278 414.766134,110.937005 410.688965,112.377441 C406.611796,113.817878 402.302757,114.538086 397.761719,114.538086 C391.609344,114.538086 386.21389,113.500499 381.575195,111.425293 C376.9365,109.350087 373.06691,106.505877 369.966309,102.892578 C366.865707,99.2792788 364.521981,95.0434813 362.935059,90.1850586 C361.348137,85.3266359 360.554688,80.1142856 360.554688,74.5478516 L360.554688,72.3505859 C360.554688,66.7841519 361.33593,61.5718016 362.898438,56.7133789 C364.460945,51.8549562 366.804672,47.6191587 369.929688,44.0058594 C373.054703,40.3925601 376.924293,37.5361433 381.538574,35.4365234 C386.152855,33.3369036 391.511688,32.2871094 397.615234,32.2871094 C402.498071,32.2871094 407.014628,33.0195239 411.165039,34.484375 C415.31545,35.9492261 418.892075,38.0121937 421.89502,40.6733398 C424.897964,43.334486 427.229484,46.55711 428.889648,50.3413086 C430.549813,54.1255072 431.331055,58.3613047 431.233398,63.0488281 L412.043945,63.0488281 C412.141602,61.0956934 411.848636,59.2402432 411.165039,57.4824219 C410.481442,55.7246006 409.480475,54.2109438 408.162109,52.9414062 C406.843743,51.6718687 405.256845,50.6586952 403.401367,49.9018555 C401.545889,49.1450157 399.519542,48.7666016 397.322266,48.7666016 C394.099593,48.7666016 391.438487,49.4257747 389.338867,50.7441406 C387.239247,52.0625066 385.566901,53.8203015 384.321777,56.0175781 C383.076654,58.2148547 382.197756,60.729478 381.685059,63.5615234 C381.172361,66.3935688 380.916016,69.3232271 380.916016,72.3505859 L380.916016,74.5478516 C380.916016,77.6240388 381.160154,80.5903177 381.648438,83.4467773 C382.136721,86.3032369 383.003412,88.8178602 384.248535,90.9907227 C385.493659,93.1635851 387.178212,94.9091731 389.302246,96.2275391 C391.42628,97.545905 394.124007,98.2050781 397.395508,98.2050781 Z M490.779297,114.464844 C484.675751,114.464844 479.133814,113.463877 474.15332,111.461914 C469.172827,109.459951 464.900408,106.73781 461.335938,103.29541 C457.771467,99.8530101 455.024912,95.8003163 453.096191,91.137207 C451.167471,86.4740978 450.203125,81.4814719 450.203125,76.1591797 L450.203125,73.2294922 C450.203125,67.1747744 451.155264,61.6450446 453.05957,56.6401367 C454.963877,51.6352289 457.624983,47.3261899 461.042969,43.7128906 C464.460955,40.0995913 468.513648,37.2920022 473.201172,35.2900391 C477.888695,33.2880759 482.991183,32.2871094 488.508789,32.2871094 C494.221708,32.2871094 499.311989,33.2270414 503.779785,35.1069336 C508.247581,36.9868258 512.031723,39.6357251 515.132324,43.0537109 C518.232926,46.4716968 520.588859,50.5854252 522.200195,55.3950195 C523.811531,60.2046139 524.617188,65.5146194 524.617188,71.3251953 L524.617188,79.9677734 L470.857422,79.9677734 C471.248049,82.6533337 472.041498,85.1069225 473.237793,87.3286133 C474.434088,89.5503041 475.959952,91.4667888 477.81543,93.078125 C479.670908,94.6894612 481.79491,95.9345659 484.1875,96.8134766 C486.58009,97.6923872 489.192369,98.1318359 492.024414,98.1318359 C494.026377,98.1318359 496.016103,97.9365254 497.993652,97.5458984 C499.971201,97.1552715 501.863272,96.5815468 503.669922,95.824707 C505.476572,95.0678673 507.161125,94.1279353 508.723633,93.0048828 C510.286141,91.8818303 511.653314,90.5634841 512.825195,89.0498047 L523.005859,100.036133 C521.736322,101.842782 520.088389,103.612784 518.062012,105.346191 C516.035634,107.079599 513.64308,108.617669 510.884277,109.960449 C508.125474,111.303229 505.06154,112.389644 501.692383,113.219727 C498.323225,114.049809 494.685566,114.464844 490.779297,114.464844 Z M488.362305,48.7666016 C486.067371,48.7666016 483.967783,49.1694296 482.063477,49.9750977 C480.15917,50.7807657 478.486824,51.9404221 477.046387,53.4541016 C475.60595,54.967781 474.397466,56.7744036 473.420898,58.8740234 C472.444331,60.9736433 471.711917,63.3173699 471.223633,65.9052734 L504.62207,65.9052734 L504.62207,64.2939453 C504.524414,62.1454971 504.109379,60.1191501 503.376953,58.2148438 C502.644528,56.3105374 501.594733,54.6626046 500.227539,53.2709961 C498.860345,51.8793876 497.187998,50.7807657 495.210449,49.9750977 C493.2329,49.1694296 490.950208,48.7666016 488.362305,48.7666016 Z M555.012695,33.7519531 L555.598633,43.3466797 C557.112312,39.9286938 559.199694,37.2309669 561.86084,35.253418 C564.521986,33.275869 567.756817,32.2871094 571.56543,32.2871094 C577.961946,32.2871094 582.136709,35.0946985 584.089844,40.7099609 C585.652352,38.073229 587.642078,36.0102614 590.059082,34.5209961 C592.476086,33.0317308 595.393538,32.2871094 598.811523,32.2871094 C601.204114,32.2871094 603.437978,32.7265581 605.513184,33.6054688 C607.588389,34.4843794 609.395012,35.888174 610.933105,37.8168945 C612.471199,39.7456151 613.667476,42.2358246 614.521973,45.2875977 C615.376469,48.3393707 615.803711,52.062478 615.803711,56.4570312 L615.803711,113 L597.273438,113 L597.273438,56.3837891 C597.273438,54.8701096 597.114748,53.6250049 596.797363,52.6484375 C596.479979,51.6718701 596.052737,50.9028348 595.515625,50.3413086 C594.978513,49.7797823 594.355961,49.3891613 593.647949,49.1694336 C592.939938,48.9497059 592.21973,48.8398438 591.487305,48.8398438 C590.071282,48.8398438 588.875005,49.1694303 587.898438,49.8286133 C586.92187,50.4877963 586.165042,51.3789006 585.62793,52.5019531 L585.62793,113 L567.683594,113 L567.683594,56.3105469 C567.683594,54.7968674 567.537111,53.5517627 567.244141,52.5751953 C566.95117,51.5986279 566.548342,50.8417996 566.035645,50.3046875 C565.522947,49.7675754 564.924808,49.3891613 564.241211,49.1694336 C563.557614,48.9497059 562.825199,48.8398438 562.043945,48.8398438 C560.481437,48.8398438 559.224126,49.2792925 558.271973,50.1582031 C557.319819,51.0371138 556.575198,52.2089771 556.038086,53.6738281 L556.038086,113 L537.507812,113 L537.507812,33.7519531 L555.012695,33.7519531 Z M703.767578,74.1816406 C703.767578,80.0898733 703.120612,85.509741 701.82666,90.4414062 C700.532708,95.3730715 698.59181,99.6210759 696.003906,103.185547 C693.416003,106.750018 690.193379,109.520986 686.335938,111.498535 C682.478496,113.476084 677.986354,114.464844 672.859375,114.464844 C668.22068,114.464844 664.204607,113.598153 660.811035,111.864746 C657.417464,110.131339 654.500012,107.702164 652.058594,104.577148 L651.106445,113 L632.795898,113 L632.795898,0.5 L653.157227,0.5 L653.157227,40.9296875 C655.500988,38.1952988 658.271957,36.0712966 661.470215,34.5576172 C664.668473,33.0439377 668.415994,32.2871094 672.712891,32.2871094 C677.888698,32.2871094 682.417461,33.2880759 686.299316,35.2900391 C690.181172,37.2920022 693.416003,40.0751775 696.003906,43.6396484 C698.59181,47.2041194 700.532708,51.4643307 701.82666,56.4204102 C703.120612,61.3764896 703.767578,66.7841504 703.767578,72.6435547 L703.767578,74.1816406 Z M683.40625,72.6435547 C683.40625,69.4208823 683.162112,66.369155 682.673828,63.4882812 C682.185544,60.6074075 681.343268,58.0805773 680.146973,55.9077148 C678.950678,53.7348524 677.327159,52.0136782 675.276367,50.7441406 C673.225576,49.474603 670.662125,48.8398438 667.585938,48.8398438 C663.874981,48.8398438 660.859875,49.6210859 658.540527,51.1835938 C656.22118,52.7461016 654.426764,54.8945176 653.157227,57.6289062 L653.157227,89.1962891 C654.426764,91.9306777 656.22118,94.0790937 658.540527,95.6416016 C660.859875,97.2041094 663.923809,97.9853516 667.732422,97.9853516 C670.808609,97.9853516 673.347646,97.387213 675.349609,96.190918 C677.351573,94.9946229 678.950678,93.3344833 680.146973,91.2104492 C681.343268,89.0864152 682.185544,86.5717919 682.673828,83.6665039 C683.162112,80.7612159 683.40625,77.5996265 683.40625,74.1816406 L683.40625,72.6435547 Z M760.823242,114.464844 C754.719696,114.464844 749.177759,113.463877 744.197266,111.461914 C739.216772,109.459951 734.944354,106.73781 731.379883,103.29541 C727.815412,99.8530101 725.068857,95.8003163 723.140137,91.137207 C721.211416,86.4740978 720.24707,81.4814719 720.24707,76.1591797 L720.24707,73.2294922 C720.24707,67.1747744 721.199209,61.6450446 723.103516,56.6401367 C725.007822,51.6352289 727.668928,47.3261899 731.086914,43.7128906 C734.5049,40.0995913 738.557594,37.2920022 743.245117,35.2900391 C747.932641,33.2880759 753.035129,32.2871094 758.552734,32.2871094 C764.265654,32.2871094 769.355935,33.2270414 773.82373,35.1069336 C778.291526,36.9868258 782.075668,39.6357251 785.17627,43.0537109 C788.276871,46.4716968 790.632804,50.5854252 792.244141,55.3950195 C793.855477,60.2046139 794.661133,65.5146194 794.661133,71.3251953 L794.661133,79.9677734 L740.901367,79.9677734 C741.291994,82.6533337 742.085443,85.1069225 743.281738,87.3286133 C744.478033,89.5503041 746.003897,91.4667888 747.859375,93.078125 C749.714853,94.6894612 751.838855,95.9345659 754.231445,96.8134766 C756.624035,97.6923872 759.236314,98.1318359 762.068359,98.1318359 C764.070323,98.1318359 766.060049,97.9365254 768.037598,97.5458984 C770.015147,97.1552715 771.907218,96.5815468 773.713867,95.824707 C775.520517,95.0678673 777.20507,94.1279353 778.767578,93.0048828 C780.330086,91.8818303 781.69726,90.5634841 782.869141,89.0498047 L793.049805,100.036133 C791.780267,101.842782 790.132334,103.612784 788.105957,105.346191 C786.07958,107.079599 783.687026,108.617669 780.928223,109.960449 C778.16942,111.303229 775.105486,112.389644 771.736328,113.219727 C768.367171,114.049809 764.729512,114.464844 760.823242,114.464844 Z M758.40625,48.7666016 C760.994154,48.7666016 763.276846,49.1694296 765.254395,49.9750977 C767.231943,50.7807657 768.90429,51.8793876 770.271484,53.2709961 C771.638679,54.6626046 772.688473,56.3105374 773.420898,58.2148438 C774.153324,60.1191501 774.568359,62.1454971 774.666016,64.2939453 L774.666016,65.9052734 L741.267578,65.9052734 C741.755862,63.3173699 742.488276,60.9736433 743.464844,58.8740234 C744.441411,56.7744036 745.649895,54.967781 747.090332,53.4541016 C748.530769,51.9404221 750.203115,50.7807657 752.107422,49.9750977 C754.011728,49.1694296 756.111317,48.7666016 758.40625,48.7666016 Z M869.294922,32.2871094 C872.371109,32.2871094 875.215319,32.4946268 877.827637,32.909668 C880.439954,33.3247091 882.55175,33.7763647 884.163086,34.2646484 L881.160156,54.5527344 C878.474596,53.9179656 875.728041,53.4418961 872.92041,53.1245117 C870.112779,52.8071273 867.439466,52.6484375 864.900391,52.6484375 C859.187471,52.6484375 854.60988,53.7470593 851.16748,55.9443359 C847.72508,58.1416125 845.149423,61.2909951 843.44043,65.3925781 L843.44043,113 L823.079102,113 L823.079102,33.7519531 L842.048828,33.7519531 L843.000977,46.7158203 C846.223649,42.2236104 850.081032,38.6958136 854.573242,36.1323242 C859.065452,33.5688348 863.97263,32.2871094 869.294922,32.2871094 Z" id="codecember" fill="#333333"></path>
                <path d="M37.3369141,98.2050781 C39.3388772,98.2050781 41.243155,97.9121123 43.0498047,97.3261719 C44.8564543,96.7402314 46.4433525,95.9101616 47.8105469,94.8359375 C49.1777412,93.7617134 50.2397423,92.467781 50.996582,90.9541016 C51.7534218,89.4404221 52.0830083,87.7558687 51.9853516,85.9003906 L71.1748047,85.9003906 C71.2724614,90.0019736 70.4301847,93.8105293 68.6479492,97.3261719 C66.8657137,100.841814 64.4365388,103.869128 61.3603516,106.408203 C58.2841643,108.947278 54.7075399,110.937005 50.6303711,112.377441 C46.5532023,113.817878 42.2441633,114.538086 37.703125,114.538086 C31.5507505,114.538086 26.1552966,113.500499 21.5166016,111.425293 C16.8779065,109.350087 13.0083163,106.505877 9.90771484,102.892578 C6.8071134,99.2792788 4.46338684,95.0434813 2.87646484,90.1850586 C1.28954285,85.3266359 0.49609375,80.1142856 0.49609375,74.5478516 L0.49609375,72.3505859 C0.49609375,66.7841519 1.27733594,61.5718016 2.83984375,56.7133789 C4.40235156,51.8549562 6.74607812,47.6191587 9.87109375,44.0058594 C12.9961094,40.3925601 16.8656996,37.5361433 21.4799805,35.4365234 C26.0942614,33.3369036 31.4530945,32.2871094 37.5566406,32.2871094 C42.4394775,32.2871094 46.9560339,33.0195239 51.1064453,34.484375 C55.2568567,35.9492261 58.8334811,38.0121937 61.8364258,40.6733398 C64.8393705,43.334486 67.1708901,46.55711 68.8310547,50.3413086 C70.4912192,54.1255072 71.2724614,58.3613047 71.1748047,63.0488281 L51.9853516,63.0488281 C52.0830083,61.0956934 51.7900425,59.2402432 51.1064453,57.4824219 C50.4228481,55.7246006 49.4218816,54.2109438 48.1035156,52.9414062 C46.7851497,51.6718687 45.1982515,50.6586952 43.3427734,49.9018555 C41.4872954,49.1450157 39.4609485,48.7666016 37.2636719,48.7666016 C34.0409995,48.7666016 31.3798933,49.4257747 29.2802734,50.7441406 C27.1806536,52.0625066 25.508307,53.8203015 24.2631836,56.0175781 C23.0180602,58.2148547 22.1391627,60.729478 21.6264648,63.5615234 C21.113767,66.3935688 20.8574219,69.3232271 20.8574219,72.3505859 L20.8574219,74.5478516 C20.8574219,77.6240388 21.1015601,80.5903177 21.5898438,83.4467773 C22.0781274,86.3032369 22.944818,88.8178602 24.1899414,90.9907227 C25.4350648,93.1635851 27.1196183,94.9091731 29.2436523,96.2275391 C31.3676864,97.545905 34.0654133,98.2050781 37.3369141,98.2050781 Z" id="Path" fill="#E8F5FF"></path>
                <path d="M89.4853516,72.6435547 C89.4853516,66.8818071 90.3154214,61.5473878 91.9755859,56.6401367 C93.6357505,51.7328856 96.0649254,47.4726743 99.2631836,43.859375 C102.461442,40.2460757 106.367653,37.4140728 110.981934,35.3632812 C115.596214,33.3124897 120.881806,32.2871094 126.838867,32.2871094 C132.795928,32.2871094 138.093727,33.3124897 142.732422,35.3632812 C147.371117,37.4140728 151.289535,40.2460757 154.487793,43.859375 C157.686051,47.4726743 160.115226,51.7328856 161.775391,56.6401367 C163.435555,61.5473878 164.265625,66.8818071 164.265625,72.6435547 L164.265625,74.1816406 C164.265625,79.9922166 163.435555,85.3510497 161.775391,90.2583008 C160.115226,95.1655519 157.698258,99.4257632 154.524414,103.039062 C151.35057,106.652362 147.444359,109.472158 142.805664,111.498535 C138.166969,113.524912 132.893584,114.538086 126.985352,114.538086 C121.028291,114.538086 115.718285,113.524912 111.055176,111.498535 C106.392067,109.472158 102.461442,106.652362 99.2631836,103.039062 C96.0649254,99.4257632 93.6357505,95.1655519 91.9755859,90.2583008 C90.3154214,85.3510497 89.4853516,79.9922166 89.4853516,74.1816406 L89.4853516,72.6435547 Z M109.84668,74.1816406 C109.84668,77.5019697 110.164059,80.6147316 110.798828,83.5200195 C111.433597,86.4253075 112.434563,88.9643446 113.801758,91.137207 C115.168952,93.3100695 116.938954,95.0312437 119.111816,96.3007812 C121.284679,97.5703188 123.909164,98.2050781 126.985352,98.2050781 C129.963882,98.2050781 132.527333,97.5703188 134.675781,96.3007812 C136.824229,95.0312437 138.569818,93.3100695 139.912598,91.137207 C141.255378,88.9643446 142.244137,86.4253075 142.878906,83.5200195 C143.513675,80.6147316 143.831055,77.5019697 143.831055,74.1816406 L143.831055,72.6435547 C143.831055,69.4208823 143.513675,66.369155 142.878906,63.4882812 C142.244137,60.6074075 141.255378,58.0683704 139.912598,55.8710938 C138.569818,53.6738171 136.824229,51.940436 134.675781,50.6708984 C132.527333,49.4013608 129.915054,48.7666016 126.838867,48.7666016 C123.811508,48.7666016 121.223644,49.4013608 119.075195,50.6708984 C116.926747,51.940436 115.168952,53.6738171 113.801758,55.8710938 C112.434563,58.0683704 111.433597,60.6074075 110.798828,63.4882812 C110.164059,66.369155 109.84668,69.4208823 109.84668,72.6435547 L109.84668,74.1816406 Z" id="Combined-Shape" fill="#E8F5FF"></path>
                <path d="M180.15918,72.7900391 C180.15918,66.7841497 180.854974,61.2910405 182.246582,56.3105469 C183.638191,51.3300532 185.676744,47.057635 188.362305,43.4931641 C191.047865,39.9286931 194.30711,37.1699316 198.140137,35.2167969 C201.973164,33.2636621 206.355444,32.2871094 211.287109,32.2871094 C215.437521,32.2871094 219.087387,33.0317308 222.236816,34.5209961 C225.386246,36.0102614 228.181628,38.1220566 230.623047,40.8564453 L230.623047,0.5 L251.057617,0.5 L251.057617,113 L232.673828,113 L231.648438,104.723633 C229.158191,107.79982 226.228532,110.192374 222.859375,111.901367 C219.490218,113.61036 215.584007,114.464844 211.140625,114.464844 C206.306616,114.464844 201.973164,113.45167 198.140137,111.425293 C194.30711,109.398916 191.060072,106.603533 188.398926,103.039062 C185.73778,99.4745916 183.699226,95.2387941 182.283203,90.331543 C180.86718,85.4242919 180.15918,80.0898726 180.15918,74.328125 L180.15918,72.7900391 Z M200.520508,74.328125 C200.520508,77.6484541 200.801267,80.7368021 201.362793,83.5932617 C201.924319,86.4497213 202.839837,88.9399308 204.109375,91.0639648 C205.378913,93.1879989 207.014638,94.8603455 209.016602,96.0810547 C211.018565,97.3017639 213.459947,97.9121094 216.34082,97.9121094 C219.856463,97.9121094 222.773914,97.155281 225.093262,95.6416016 C227.412609,94.1279221 229.255853,92.0527476 230.623047,89.4160156 L230.623047,57.3359375 C229.255853,54.6503772 227.424816,52.5629957 225.129883,51.0737305 C222.834949,49.5844652 219.954119,48.8398438 216.487305,48.8398438 C213.606431,48.8398438 211.152842,49.4623961 209.126465,50.7075195 C207.100088,51.9526429 205.452155,53.6616102 204.182617,55.8344727 C202.91308,58.0073351 201.985354,60.5463722 201.399414,63.4516602 C200.813474,66.3569481 200.520508,69.46971 200.520508,72.7900391 L200.520508,74.328125 Z" id="Combined-Shape" fill="#E8F5FF"></path>
                <path d="M310.75,114.464844 C304.646454,114.464844 299.104517,113.463877 294.124023,111.461914 C289.14353,109.459951 284.871112,106.73781 281.306641,103.29541 C277.74217,99.8530101 274.995615,95.8003163 273.066895,91.137207 C271.138174,86.4740978 270.173828,81.4814719 270.173828,76.1591797 L270.173828,73.2294922 C270.173828,67.1747744 271.125967,61.6450446 273.030273,56.6401367 C274.93458,51.6352289 277.595686,47.3261899 281.013672,43.7128906 C284.431658,40.0995913 288.484352,37.2920022 293.171875,35.2900391 C297.859398,33.2880759 302.961886,32.2871094 308.479492,32.2871094 C314.192411,32.2871094 319.282693,33.2270414 323.750488,35.1069336 C328.218284,36.9868258 332.002426,39.6357251 335.103027,43.0537109 C338.203629,46.4716968 340.559562,50.5854252 342.170898,55.3950195 C343.782235,60.2046139 344.587891,65.5146194 344.587891,71.3251953 L344.587891,79.9677734 L290.828125,79.9677734 C291.218752,82.6533337 292.012201,85.1069225 293.208496,87.3286133 C294.404791,89.5503041 295.930655,91.4667888 297.786133,93.078125 C299.641611,94.6894612 301.765613,95.9345659 304.158203,96.8134766 C306.550793,97.6923872 309.163072,98.1318359 311.995117,98.1318359 C313.99708,98.1318359 315.986807,97.9365254 317.964355,97.5458984 C319.941904,97.1552715 321.833975,96.5815468 323.640625,95.824707 C325.447275,95.0678673 327.131828,94.1279353 328.694336,93.0048828 C330.256844,91.8818303 331.624018,90.5634841 332.795898,89.0498047 L342.976562,100.036133 C341.707025,101.842782 340.059092,103.612784 338.032715,105.346191 C336.006338,107.079599 333.613783,108.617669 330.85498,109.960449 C328.096178,111.303229 325.032243,112.389644 321.663086,113.219727 C318.293928,114.049809 314.65627,114.464844 310.75,114.464844 Z M308.333008,48.7666016 C306.038074,48.7666016 303.938486,49.1694296 302.03418,49.9750977 C300.129873,50.7807657 298.457527,51.9404221 297.01709,53.4541016 C295.576653,54.967781 294.368169,56.7744036 293.391602,58.8740234 C292.415034,60.9736433 291.68262,63.3173699 291.194336,65.9052734 L324.592773,65.9052734 L324.592773,64.2939453 C324.495117,62.1454971 324.080082,60.1191501 323.347656,58.2148438 C322.615231,56.3105374 321.565437,54.6626046 320.198242,53.2709961 C318.831048,51.8793876 317.158701,50.7807657 315.181152,49.9750977 C313.203603,49.1694296 310.920911,48.7666016 308.333008,48.7666016 Z" id="Combined-Shape" fill="#E8F5FF"></path>
                <path d="M810.179914,144.183844 C809.120271,144.536218 807.958629,144.712402 806.694973,144.712402 C805.352193,144.712402 804.08064,144.529299 802.880276,144.163086 C801.679912,143.796873 800.510083,143.308597 799.370754,142.698242 C798.231426,142.087888 797.122631,141.355473 796.044338,140.500977 C794.966045,139.64648 793.857251,138.730962 792.717922,137.754395 C791.253071,136.533685 789.798414,135.384201 788.353909,134.305908 C786.909403,133.227615 785.414056,132.291752 783.867825,131.498291 C782.321593,130.70483 780.71435,130.084312 779.046047,129.636719 C777.377745,129.189125 775.607743,128.965332 773.735989,128.965332 C770.969048,128.965332 768.527666,129.494298 766.41177,130.552246 C766.138127,130.689067 765.86993,130.832013 765.607177,130.981084 L764.946114,130.918457 C764.942558,131.074898 764.937216,131.230872 764.930088,131.38638 C763.446814,132.322335 762.150351,133.468438 761.040676,134.824707 C759.575825,136.615081 758.446686,138.690255 757.653225,141.050293 C757.30974,142.071939 757.036791,143.116454 756.834375,144.183844 C755.774732,144.536218 754.61309,144.712402 753.349434,144.712402 C752.006654,144.712402 750.735101,144.529299 749.534737,144.163086 C748.334373,143.796873 747.164544,143.308597 746.025215,142.698242 C744.885887,142.087888 743.777092,141.355473 742.698799,140.500977 C741.620506,139.64648 740.511712,138.730962 739.372383,137.754395 C737.907532,136.533685 736.452875,135.384201 735.008369,134.305908 C733.563864,133.227615 732.068517,132.291752 730.522285,131.498291 C728.976054,130.70483 727.368811,130.084312 725.700508,129.636719 C724.032206,129.189125 722.262204,128.965332 720.39045,128.965332 C717.623509,128.965332 715.182127,129.494298 713.066231,130.552246 C712.792588,130.689067 712.524391,130.832013 712.261638,130.981084 L711.600574,130.918457 C711.597019,131.074898 711.591677,131.230872 711.584549,131.38638 C710.101275,132.322335 708.804812,133.468438 707.695137,134.824707 C706.230286,136.615081 705.101147,138.690255 704.307686,141.050293 C703.964201,142.071939 703.691252,143.116454 703.488835,144.183844 C702.429193,144.536218 701.267551,144.712402 700.003895,144.712402 C698.661115,144.712402 697.389562,144.529299 696.189198,144.163086 C694.988833,143.796873 693.819005,143.308597 692.679676,142.698242 C691.540347,142.087888 690.431553,141.355473 689.35326,140.500977 C688.274967,139.64648 687.166173,138.730962 686.026844,137.754395 C684.561993,136.533685 683.107336,135.384201 681.66283,134.305908 C680.218324,133.227615 678.722978,132.291752 677.176746,131.498291 C675.630515,130.70483 674.023272,130.084312 672.354969,129.636719 C670.686666,129.189125 668.916665,128.965332 667.04491,128.965332 C664.27797,128.965332 661.836588,129.494298 659.720692,130.552246 C659.447049,130.689067 659.178852,130.832013 658.916099,130.981084 L658.255035,130.918457 C658.25148,131.074898 658.246138,131.230872 658.23901,131.38638 C656.755735,132.322335 655.459273,133.468438 654.349598,134.824707 C652.884747,136.615081 651.755608,138.690255 650.962147,141.050293 C650.618662,142.071939 650.345712,143.116454 650.143296,144.183844 C649.083654,144.536218 647.922012,144.712402 646.658356,144.712402 C645.315576,144.712402 644.044023,144.529299 642.843658,144.163086 C641.643294,143.796873 640.473466,143.308597 639.334137,142.698242 C638.194808,142.087888 637.086014,141.355473 636.007721,140.500977 C634.929428,139.64648 633.820634,138.730962 632.681305,137.754395 C631.216454,136.533685 629.761797,135.384201 628.317291,134.305908 C626.872785,133.227615 625.377439,132.291752 623.831207,131.498291 C622.284976,130.70483 620.677733,130.084312 619.00943,129.636719 C617.341127,129.189125 615.571125,128.965332 613.699371,128.965332 C610.93243,128.965332 608.491049,129.494298 606.375153,130.552246 C606.10151,130.689067 605.833313,130.832013 605.57056,130.981084 L604.909496,130.918457 C604.905941,131.074898 604.900599,131.230872 604.893471,131.38638 C603.410196,132.322335 602.113734,133.468438 601.004059,134.824707 C599.539208,136.615081 598.410069,138.690255 597.616608,141.050293 C597.273123,142.071939 597.000173,143.116454 596.797757,144.183844 C595.738115,144.536218 594.576473,144.712402 593.312817,144.712402 C591.970036,144.712402 590.698483,144.529299 589.498119,144.163086 C588.297755,143.796873 587.127926,143.308597 585.988598,142.698242 C584.849269,142.087888 583.740475,141.355473 582.662182,140.500977 C581.583889,139.64648 580.475094,138.730962 579.335766,137.754395 C577.870915,136.533685 576.416258,135.384201 574.971752,134.305908 C573.527246,133.227615 572.0319,132.291752 570.485668,131.498291 C568.939436,130.70483 567.332193,130.084312 565.663891,129.636719 C563.995588,129.189125 562.225586,128.965332 560.353832,128.965332 C557.586891,128.965332 555.145509,129.494298 553.029613,130.552246 C552.755971,130.689067 552.487773,130.832013 552.225021,130.981084 L551.563957,130.918457 C551.560402,131.074898 551.55506,131.230872 551.547932,131.38638 C550.064657,132.322335 548.768194,133.468438 547.65852,134.824707 C546.193669,136.615081 545.06453,138.690255 544.271069,141.050293 C543.927584,142.071939 543.654634,143.116454 543.452218,144.183844 C542.392576,144.536218 541.230934,144.712402 539.967278,144.712402 C538.624497,144.712402 537.352944,144.529299 536.15258,144.163086 C534.952216,143.796873 533.782387,143.308597 532.643059,142.698242 C531.50373,142.087888 530.394936,141.355473 529.316643,140.500977 C528.23835,139.64648 527.129555,138.730962 525.990227,137.754395 C524.525376,136.533685 523.070719,135.384201 521.626213,134.305908 C520.181707,133.227615 518.686361,132.291752 517.140129,131.498291 C515.593897,130.70483 513.986654,130.084312 512.318352,129.636719 C510.650049,129.189125 508.880047,128.965332 507.008293,128.965332 C504.241352,128.965332 501.79997,129.494298 499.684074,130.552246 C499.410432,130.689067 499.142234,130.832013 498.879482,130.981084 L498.218418,130.918457 C498.214863,131.074898 498.209521,131.230872 498.202393,131.38638 C496.719118,132.322335 495.422655,133.468438 494.312981,134.824707 C492.84813,136.615081 491.71899,138.690255 490.925529,141.050293 C490.582045,142.071939 490.309095,143.116454 490.106679,144.183844 C489.047037,144.536218 487.885395,144.712402 486.621738,144.712402 C485.278958,144.712402 484.007405,144.529299 482.807041,144.163086 C481.606677,143.796873 480.436848,143.308597 479.29752,142.698242 C478.158191,142.087888 477.049397,141.355473 475.971104,140.500977 C474.892811,139.64648 473.784016,138.730962 472.644688,137.754395 C471.179837,136.533685 469.72518,135.384201 468.280674,134.305908 C466.836168,133.227615 465.340822,132.291752 463.79459,131.498291 C462.248358,130.70483 460.641115,130.084312 458.972813,129.636719 C457.30451,129.189125 455.534508,128.965332 453.662754,128.965332 C450.895813,128.965332 448.361845,129.860509 446.245949,130.918457 C446.17298,130.954941 446.100509,130.991425 446.028528,131.02794 L444.872879,130.918457 C444.867221,131.167401 444.85704,131.415165 444.842335,131.661748 C443.357009,132.505078 442.093419,133.448512 440.967442,134.824707 C439.50259,136.615081 438.373451,138.690255 437.57999,141.050293 C437.236506,142.071939 436.963556,143.116454 436.76114,144.183844 C435.701497,144.536218 434.539856,144.712402 433.276199,144.712402 C431.933419,144.712402 430.661866,144.529299 429.461502,144.163086 C428.261138,143.796873 427.091309,143.308597 425.951981,142.698242 C424.812652,142.087888 423.703858,141.355473 422.625565,140.500977 C421.547271,139.64648 420.438477,138.730962 419.299149,137.754395 C417.834297,136.533685 416.379641,135.384201 414.935135,134.305908 C413.490629,133.227615 411.995283,132.291752 410.449051,131.498291 C408.902819,130.70483 407.295576,130.084312 405.627274,129.636719 C403.958971,129.189125 402.188969,128.965332 400.317215,128.965332 C397.550274,128.965332 395.108892,129.494298 392.992996,130.552246 C392.719354,130.689067 392.451156,130.832013 392.188404,130.981084 L391.52734,130.918457 C391.523784,131.074898 391.518443,131.230872 391.511315,131.38638 C390.02804,132.322335 388.731577,133.468438 387.621902,134.824707 C386.157051,136.615081 385.027912,138.690255 384.234451,141.050293 C383.890967,142.071939 383.618017,143.116454 383.415601,144.183844 C382.355958,144.536218 381.194317,144.712402 379.93066,144.712402 C378.58788,144.712402 377.316327,144.529299 376.115963,144.163086 C374.915599,143.796873 373.74577,143.308597 372.606441,142.698242 C371.467113,142.087888 370.358319,141.355473 369.280025,140.500977 C368.201732,139.64648 367.092938,138.730962 365.953609,137.754395 C364.488758,136.533685 363.034102,135.384201 361.589596,134.305908 C360.14509,133.227615 358.649743,132.291752 357.103512,131.498291 C355.55728,130.70483 353.950037,130.084312 352.281734,129.636719 C350.613432,129.189125 348.84343,128.965332 346.971676,128.965332 C344.204735,128.965332 341.763353,129.494298 339.647457,130.552246 C339.373815,130.689067 339.105617,130.832013 338.842864,130.981084 L338.181801,130.918457 C338.178245,131.074898 338.172904,131.230872 338.165775,131.38638 C336.682501,132.322335 335.386038,133.468438 334.276363,134.824707 C332.811512,136.615081 331.682373,138.690255 330.888912,141.050293 C330.545428,142.071939 330.272478,143.116454 330.070062,144.183844 C329.010419,144.536218 327.848777,144.712402 326.585121,144.712402 C325.242341,144.712402 323.970788,144.529299 322.770424,144.163086 C321.57006,143.796873 320.400231,143.308597 319.260902,142.698242 C318.121574,142.087888 317.01278,141.355473 315.934486,140.500977 C314.856193,139.64648 313.747399,138.730962 312.60807,137.754395 C311.143219,136.533685 309.688563,135.384201 308.244057,134.305908 C306.799551,133.227615 305.304204,132.291752 303.757973,131.498291 C302.211741,130.70483 300.604498,130.084312 298.936195,129.636719 C297.267893,129.189125 295.497891,128.965332 293.626137,128.965332 C290.859196,128.965332 288.417814,129.494298 286.301918,130.552246 C286.028276,130.689067 285.760078,130.832013 285.497325,130.981084 L284.836262,130.918457 C284.832706,131.074898 284.827364,131.230872 284.820236,131.38638 C283.336962,132.322335 282.040499,133.468438 280.930824,134.824707 C279.465973,136.615081 278.336834,138.690255 277.543373,141.050293 C277.199889,142.071939 276.926939,143.116454 276.724523,144.183844 C275.66488,144.536218 274.503238,144.712402 273.239582,144.712402 C271.896802,144.712402 270.625249,144.529299 269.424885,144.163086 C268.224521,143.796873 267.054692,143.308597 265.915363,142.698242 C264.776035,142.087888 263.66724,141.355473 262.588947,140.500977 C261.510654,139.64648 260.40186,138.730962 259.262531,137.754395 C257.79768,136.533685 256.343024,135.384201 254.898518,134.305908 C253.454012,133.227615 251.958665,132.291752 250.412434,131.498291 C248.866202,130.70483 247.258959,130.084312 245.590656,129.636719 C243.922354,129.189125 242.152352,128.965332 240.280598,128.965332 C237.513657,128.965332 235.072275,129.494298 232.956379,130.552246 C232.682736,130.689067 232.414539,130.832013 232.151786,130.981084 L231.490723,130.918457 C231.487167,131.074898 231.481825,131.230872 231.474697,131.38638 C229.991423,132.322335 228.69496,133.468438 227.585285,134.824707 C226.120434,136.615081 224.991295,138.690255 224.197834,141.050293 C223.854349,142.071939 223.5814,143.116454 223.378984,144.183844 C222.319341,144.536218 221.157699,144.712402 219.894043,144.712402 C218.551263,144.712402 217.27971,144.529299 216.079346,144.163086 C214.878982,143.796873 213.709153,143.308597 212.569824,142.698242 C211.430496,142.087888 210.321701,141.355473 209.243408,140.500977 C208.165115,139.64648 207.056321,138.730962 205.916992,137.754395 C204.452141,136.533685 202.997484,135.384201 201.552979,134.305908 C200.108473,133.227615 198.613126,132.291752 197.066895,131.498291 C195.520663,130.70483 193.91342,130.084312 192.245117,129.636719 C190.576815,129.189125 188.806813,128.965332 186.935059,128.965332 C184.168118,128.965332 181.726736,129.494298 179.61084,130.552246 C177.494944,131.610194 175.704597,133.034333 174.239746,134.824707 C172.774895,136.615081 171.645756,138.690255 170.852295,141.050293 C170.058834,143.410331 169.641765,145.892402 169.601074,148.496582 L175.399414,148.984863 C175.440104,147.19449 175.71476,145.485522 176.223389,143.85791 C176.732018,142.230298 177.464432,140.795986 178.420654,139.554932 C179.376877,138.313877 180.56705,137.327152 181.991211,136.594727 C183.415372,135.862301 185.063304,135.496094 186.935059,135.496094 C188.277839,135.496094 189.559564,135.669025 190.780273,136.014893 C192.000983,136.36076 193.191156,136.849037 194.35083,137.479736 C195.510504,138.110436 196.639643,138.842851 197.738281,139.677002 C198.83692,140.511153 199.935541,141.396154 201.03418,142.332031 C202.499031,143.634121 203.953687,144.824295 205.398193,145.902588 C206.842699,146.980881 208.327873,147.916744 209.85376,148.710205 C211.379646,149.503666 212.966544,150.114012 214.614502,150.54126 C216.262459,150.968508 218.022289,151.182129 219.894043,151.182129 C222.620294,151.182129 225.051503,150.64299 227.187744,149.564697 C227.571047,149.371221 227.943869,149.165627 228.30621,148.947916 L228.744953,148.984863 C228.747353,148.879251 228.750568,148.773921 228.754596,148.668875 C230.224012,147.722082 231.51243,146.566024 232.619873,145.200684 C234.105069,143.36962 235.244381,141.263928 236.037842,138.883545 C236.354147,137.934631 236.610638,136.971173 236.807316,135.993168 C237.863819,135.661784 239.021574,135.496094 240.280598,135.496094 C241.623378,135.496094 242.905103,135.669025 244.125813,136.014893 C245.346522,136.36076 246.536695,136.849037 247.696369,137.479736 C248.856043,138.110436 249.985182,138.842851 251.08382,139.677002 C252.182459,140.511153 253.28108,141.396154 254.379719,142.332031 C255.84457,143.634121 257.299227,144.824295 258.743732,145.902588 C260.188238,146.980881 261.673412,147.916744 263.199299,148.710205 C264.725185,149.503666 266.312084,150.114012 267.960041,150.54126 C269.607999,150.968508 271.367828,151.182129 273.239582,151.182129 C275.965833,151.182129 278.397042,150.64299 280.533283,149.564697 C280.916586,149.371221 281.289408,149.165627 281.651749,148.947916 L282.090492,148.984863 C282.092893,148.879251 282.096107,148.773921 282.100136,148.668875 C283.569551,147.722082 284.857969,146.566024 285.965412,145.200684 C287.450608,143.36962 288.58992,141.263928 289.383381,138.883545 C289.699686,137.934631 289.956177,136.971173 290.152855,135.993168 C291.209358,135.661784 292.367113,135.496094 293.626137,135.496094 C294.968917,135.496094 296.250642,135.669025 297.471352,136.014893 C298.692061,136.36076 299.882234,136.849037 301.041908,137.479736 C302.201582,138.110436 303.330721,138.842851 304.429359,139.677002 C305.527998,140.511153 306.62662,141.396154 307.725258,142.332031 C309.190109,143.634121 310.644766,144.824295 312.089272,145.902588 C313.533777,146.980881 315.018951,147.916744 316.544838,148.710205 C318.070724,149.503666 319.657623,150.114012 321.30558,150.54126 C322.953538,150.968508 324.713367,151.182129 326.585121,151.182129 C329.311372,151.182129 331.742581,150.64299 333.878822,149.564697 C334.262125,149.371221 334.634947,149.165627 334.997288,148.947916 L335.436031,148.984863 C335.438432,148.879251 335.441646,148.773921 335.445675,148.668875 C336.915091,147.722082 338.203509,146.566024 339.310951,145.200684 C340.796147,143.36962 341.935459,141.263928 342.72892,138.883545 C343.045225,137.934631 343.301716,136.971173 343.498394,135.993168 C344.554897,135.661784 345.712652,135.496094 346.971676,135.496094 C348.314456,135.496094 349.596181,135.669025 350.816891,136.014893 C352.0376,136.36076 353.227774,136.849037 354.387447,137.479736 C355.547121,138.110436 356.67626,138.842851 357.774899,139.677002 C358.873537,140.511153 359.972159,141.396154 361.070797,142.332031 C362.535648,143.634121 363.990305,144.824295 365.434811,145.902588 C366.879317,146.980881 368.364491,147.916744 369.890377,148.710205 C371.416264,149.503666 373.003162,150.114012 374.651119,150.54126 C376.299077,150.968508 378.058906,151.182129 379.93066,151.182129 C382.656911,151.182129 385.08812,150.64299 387.224361,149.564697 C387.607664,149.371221 387.980486,149.165627 388.342827,148.947916 L388.78157,148.984863 C388.783971,148.879251 388.787185,148.773921 388.791214,148.668875 C390.26063,147.722082 391.549048,146.566024 392.65649,145.200684 C394.141687,143.36962 395.280998,141.263928 396.074459,138.883545 C396.390764,137.934631 396.647255,136.971173 396.843933,135.993168 C397.900436,135.661784 399.058192,135.496094 400.317215,135.496094 C401.659995,135.496094 402.941721,135.669025 404.16243,136.014893 C405.383139,136.36076 406.573313,136.849037 407.732986,137.479736 C408.89266,138.110436 410.021799,138.842851 411.120438,139.677002 C412.219076,140.511153 413.317698,141.396154 414.416336,142.332031 C415.881187,143.634121 417.335844,144.824295 418.78035,145.902588 C420.224856,146.980881 421.71003,147.916744 423.235916,148.710205 C424.761803,149.503666 426.348701,150.114012 427.996658,150.54126 C429.644616,150.968508 431.404445,151.182129 433.276199,151.182129 C436.00245,151.182129 438.433659,150.64299 440.569901,149.564697 C440.953203,149.371221 441.326025,149.165627 441.688366,148.947916 L442.12711,148.984863 C442.12951,148.879251 442.132724,148.773921 442.136753,148.668875 C443.606169,147.722082 444.894587,146.566024 446.002029,145.200684 C447.487226,143.36962 448.626537,141.263928 449.419998,138.883545 C449.736303,137.934631 449.992794,136.971173 450.189472,135.993168 C451.245975,135.661784 452.403731,135.496094 453.662754,135.496094 C455.005534,135.496094 456.28726,135.669025 457.507969,136.014893 C458.728678,136.36076 459.918852,136.849037 461.078526,137.479736 C462.238199,138.110436 463.367338,138.842851 464.465977,139.677002 C465.564615,140.511153 466.663237,141.396154 467.761875,142.332031 C469.226726,143.634121 470.681383,144.824295 472.125889,145.902588 C473.570395,146.980881 475.055569,147.916744 476.581455,148.710205 C478.107342,149.503666 479.69424,150.114012 481.342197,150.54126 C482.990155,150.968508 484.749984,151.182129 486.621738,151.182129 C489.347989,151.182129 491.779198,150.64299 493.91544,149.564697 C494.298742,149.371221 494.671564,149.165627 495.033905,148.947916 L495.472649,148.984863 C495.475049,148.879251 495.478263,148.773921 495.482292,148.668875 C496.951708,147.722082 498.240126,146.566024 499.347569,145.200684 C500.832765,143.36962 501.972076,141.263928 502.765537,138.883545 C503.081842,137.934631 503.338333,136.971173 503.535011,135.993168 C504.591514,135.661784 505.74927,135.496094 507.008293,135.496094 C508.351073,135.496094 509.632799,135.669025 510.853508,136.014893 C512.074217,136.36076 513.264391,136.849037 514.424065,137.479736 C515.583738,138.110436 516.712878,138.842851 517.811516,139.677002 C518.910154,140.511153 520.008776,141.396154 521.107414,142.332031 C522.572265,143.634121 524.026922,144.824295 525.471428,145.902588 C526.915934,146.980881 528.401108,147.916744 529.926994,148.710205 C531.452881,149.503666 533.039779,150.114012 534.687737,150.54126 C536.335694,150.968508 538.095523,151.182129 539.967278,151.182129 C542.693528,151.182129 545.124738,150.64299 547.260979,149.564697 C547.644281,149.371221 548.017103,149.165627 548.379444,148.947916 L548.818188,148.984863 C548.820588,148.879251 548.823802,148.773921 548.827831,148.668875 C550.297247,147.722082 551.585665,146.566024 552.693108,145.200684 C554.178304,143.36962 555.317615,141.263928 556.111076,138.883545 C556.427381,137.934631 556.683872,136.971173 556.880551,135.993168 C557.937053,135.661784 559.094809,135.496094 560.353832,135.496094 C561.696612,135.496094 562.978338,135.669025 564.199047,136.014893 C565.419756,136.36076 566.60993,136.849037 567.769604,137.479736 C568.929277,138.110436 570.058417,138.842851 571.157055,139.677002 C572.255693,140.511153 573.354315,141.396154 574.452953,142.332031 C575.917804,143.634121 577.372461,144.824295 578.816967,145.902588 C580.261473,146.980881 581.746647,147.916744 583.272533,148.710205 C584.79842,149.503666 586.385318,150.114012 588.033276,150.54126 C589.681233,150.968508 591.441062,151.182129 593.312817,151.182129 C596.039067,151.182129 598.470277,150.64299 600.606518,149.564697 C600.989821,149.371221 601.362642,149.165627 601.724984,148.947916 L602.163727,148.984863 C602.166127,148.879251 602.169342,148.773921 602.17337,148.668875 C603.642786,147.722082 604.931204,146.566024 606.038647,145.200684 C607.523843,143.36962 608.663154,141.263928 609.456615,138.883545 C609.77292,137.934631 610.029411,136.971173 610.22609,135.993168 C611.282592,135.661784 612.440348,135.496094 613.699371,135.496094 C615.042151,135.496094 616.323877,135.669025 617.544586,136.014893 C618.765295,136.36076 619.955469,136.849037 621.115143,137.479736 C622.274817,138.110436 623.403956,138.842851 624.502594,139.677002 C625.601232,140.511153 626.699854,141.396154 627.798492,142.332031 C629.263344,143.634121 630.718,144.824295 632.162506,145.902588 C633.607012,146.980881 635.092186,147.916744 636.618073,148.710205 C638.143959,149.503666 639.730857,150.114012 641.378815,150.54126 C643.026772,150.968508 644.786602,151.182129 646.658356,151.182129 C649.384606,151.182129 651.815816,150.64299 653.952057,149.564697 C654.33536,149.371221 654.708181,149.165627 655.070523,148.947916 L655.509266,148.984863 C655.511666,148.879251 655.514881,148.773921 655.518909,148.668875 C656.988325,147.722082 658.276743,146.566024 659.384186,145.200684 C660.869382,143.36962 662.008694,141.263928 662.802155,138.883545 C663.118459,137.934631 663.37495,136.971173 663.571629,135.993168 C664.628131,135.661784 665.785887,135.496094 667.04491,135.496094 C668.387691,135.496094 669.669416,135.669025 670.890125,136.014893 C672.110835,136.36076 673.301008,136.849037 674.460682,137.479736 C675.620356,138.110436 676.749495,138.842851 677.848133,139.677002 C678.946771,140.511153 680.045393,141.396154 681.144032,142.332031 C682.608883,143.634121 684.063539,144.824295 685.508045,145.902588 C686.952551,146.980881 688.437725,147.916744 689.963612,148.710205 C691.489498,149.503666 693.076396,150.114012 694.724354,150.54126 C696.372311,150.968508 698.132141,151.182129 700.003895,151.182129 C702.730145,151.182129 705.161355,150.64299 707.297596,149.564697 C707.680899,149.371221 708.053721,149.165627 708.416062,148.947916 L708.854805,148.984863 C708.857205,148.879251 708.86042,148.773921 708.864448,148.668875 C710.333864,147.722082 711.622282,146.566024 712.729725,145.200684 C714.214921,143.36962 715.354233,141.263928 716.147694,138.883545 C716.463998,137.934631 716.72049,136.971173 716.917168,135.993168 C717.973671,135.661784 719.131426,135.496094 720.39045,135.496094 C721.73323,135.496094 723.014955,135.669025 724.235664,136.014893 C725.456374,136.36076 726.646547,136.849037 727.806221,137.479736 C728.965895,138.110436 730.095034,138.842851 731.193672,139.677002 C732.29231,140.511153 733.390932,141.396154 734.489571,142.332031 C735.954422,143.634121 737.409078,144.824295 738.853584,145.902588 C740.29809,146.980881 741.783264,147.916744 743.309151,148.710205 C744.835037,149.503666 746.421935,150.114012 748.069893,150.54126 C749.71785,150.968508 751.47768,151.182129 753.349434,151.182129 C756.075685,151.182129 758.506894,150.64299 760.643135,149.564697 C761.026438,149.371221 761.39926,149.165627 761.761601,148.947916 L762.200344,148.984863 C762.202744,148.879251 762.205959,148.773921 762.209987,148.668875 C763.679403,147.722082 764.967821,146.566024 766.075264,145.200684 C767.56046,143.36962 768.699772,141.263928 769.493233,138.883545 C769.809538,137.934631 770.066029,136.971173 770.262707,135.993168 C771.31921,135.661784 772.476965,135.496094 773.735989,135.496094 C775.078769,135.496094 776.360494,135.669025 777.581203,136.014893 C778.801913,136.36076 779.992086,136.849037 781.15176,137.479736 C782.311434,138.110436 783.440573,138.842851 784.539211,139.677002 C785.63785,140.511153 786.736471,141.396154 787.83511,142.332031 C789.299961,143.634121 790.754617,144.824295 792.199123,145.902588 C793.643629,146.980881 795.128803,147.916744 796.65469,148.710205 C798.180576,149.503666 799.767475,150.114012 801.415432,150.54126 C803.063389,150.968508 804.823219,151.182129 806.694973,151.182129 C809.421224,151.182129 811.852433,150.64299 813.988674,149.564697 C814.371977,149.371221 814.744799,149.165627 815.10714,148.947916 L815.545883,148.984863 C815.548283,148.879251 815.551498,148.773921 815.555526,148.668875 C817.024942,147.722082 818.31336,146.566024 819.420803,145.200684 C820.905999,143.36962 822.045311,141.263928 822.838772,138.883545 C823.155077,137.934631 823.411568,136.971173 823.608246,135.993168 C824.664749,135.661784 825.822504,135.496094 827.081528,135.496094 C828.424308,135.496094 829.706033,135.669025 830.926743,136.014893 C832.147452,136.36076 833.337625,136.849037 834.497299,137.479736 C835.656973,138.110436 836.786112,138.842851 837.88475,139.677002 C838.983389,140.511153 840.08201,141.396154 841.180649,142.332031 C842.6455,143.634121 844.100157,144.824295 845.544662,145.902588 C846.989168,146.980881 848.474342,147.916744 850.000229,148.710205 C851.526115,149.503666 853.113014,150.114012 854.760971,150.54126 C856.408929,150.968508 858.168758,151.182129 860.040512,151.182129 C862.766763,151.182129 865.197972,150.64299 867.334213,149.564697 C869.470454,148.486404 871.281146,147.031747 872.766342,145.200684 C874.251538,143.36962 875.39085,141.263928 876.184311,138.883545 C876.977772,136.503162 877.394841,134.031263 877.435532,131.467773 L871.637192,130.918457 C871.596501,132.708831 871.321846,134.438143 870.813217,136.106445 C870.304588,137.774748 869.562001,139.239577 868.585434,140.500977 C867.608867,141.762376 866.408521,142.779619 864.98436,143.552734 C863.560199,144.32585 861.912266,144.712402 860.040512,144.712402 C858.697732,144.712402 857.426179,144.529299 856.225815,144.163086 C855.025451,143.796873 853.855622,143.308597 852.716293,142.698242 C851.576965,142.087888 850.46817,141.355473 849.389877,140.500977 C848.311584,139.64648 847.20279,138.730962 846.063461,137.754395 C844.59861,136.533685 843.143954,135.384201 841.699448,134.305908 C840.254942,133.227615 838.759595,132.291752 837.213364,131.498291 C835.667132,130.70483 834.059889,130.084312 832.391586,129.636719 C830.723284,129.189125 828.953282,128.965332 827.081528,128.965332 C824.314587,128.965332 821.873205,129.494298 819.757309,130.552246 C819.483666,130.689067 819.215469,130.832013 818.952716,130.981084 L818.291653,130.918457 C818.288097,131.074898 818.282755,131.230872 818.275627,131.38638 C816.792353,132.322335 815.49589,133.468438 814.386215,134.824707 C812.921364,136.615081 811.792225,138.690255 810.998764,141.050293 C810.655279,142.071939 810.38233,143.116454 810.179914,144.183844 Z" id="~~~~~~~~~~~~~" fill="#E8F5FF"></path>
                <path d="M740.179688,246 L701.390625,246 L701.390625,238.578125 L719.789062,218.8125 C721.221361,217.249992 722.432287,215.830736 723.421875,214.554688 C724.411463,213.278639 725.212237,212.113287 725.824219,211.058594 C726.436201,210.003901 726.878905,209.020838 727.152344,208.109375 C727.425783,207.197912 727.5625,206.312504 727.5625,205.453125 C727.5625,204.177077 727.38021,203.044276 727.015625,202.054688 C726.65104,201.065099 726.136722,200.225264 725.472656,199.535156 C724.80859,198.845049 724.014328,198.31771 723.089844,197.953125 C722.16536,197.58854 721.143235,197.40625 720.023438,197.40625 C717.028631,197.40625 714.79558,198.239575 713.324219,199.90625 C711.852857,201.572925 711.117188,203.903631 711.117188,206.898438 L700.21875,206.898438 C700.21875,204.372383 700.700516,201.983084 701.664062,199.730469 C702.627609,197.477853 703.988272,195.505217 705.746094,193.8125 C707.503915,192.119783 709.62629,190.785161 712.113281,189.808594 C714.600273,188.832026 717.354152,188.34375 720.375,188.34375 C723.265639,188.34375 725.824208,188.747392 728.050781,189.554688 C730.277355,190.361983 732.139315,191.494784 733.636719,192.953125 C735.134122,194.411466 736.273434,196.16275 737.054688,198.207031 C737.835941,200.251312 738.226562,202.510404 738.226562,204.984375 C738.226562,206.859384 737.933597,208.649731 737.347656,210.355469 C736.761716,212.061206 735.928391,213.747388 734.847656,215.414062 C733.766922,217.080737 732.471362,218.779939 730.960938,220.511719 C729.450513,222.243498 727.770843,224.059886 725.921875,225.960938 L715.21875,237.289062 L740.179688,237.289062 L740.179688,246 Z M788.03125,224.359375 C788.03125,228.031268 787.608077,231.266913 786.761719,234.066406 C785.91536,236.865899 784.697925,239.209626 783.109375,241.097656 C781.520825,242.985687 779.580741,244.411454 777.289062,245.375 C774.997384,246.338546 772.419285,246.820312 769.554688,246.820312 C766.716132,246.820312 764.151053,246.338546 761.859375,245.375 C759.567697,244.411454 757.621102,242.985687 756.019531,241.097656 C754.417961,239.209626 753.180994,236.865899 752.308594,234.066406 C751.436194,231.266913 751,228.031268 751,224.359375 L751,210.765625 C751,207.093732 751.429683,203.858087 752.289062,201.058594 C753.148442,198.259101 754.378898,195.915374 755.980469,194.027344 C757.582039,192.139313 759.522124,190.713546 761.800781,189.75 C764.079438,188.786454 766.638007,188.304688 769.476562,188.304688 C772.34116,188.304688 774.919259,188.786454 777.210938,189.75 C779.502616,190.713546 781.449211,192.139313 783.050781,194.027344 C784.652352,195.915374 785.882808,198.259101 786.742188,201.058594 C787.601567,203.858087 788.03125,207.093732 788.03125,210.765625 L788.03125,224.359375 Z M761.9375,219.671875 L777.09375,208.382812 C777.015625,204.554668 776.351569,201.716155 775.101562,199.867188 C773.851556,198.01822 771.976575,197.09375 769.476562,197.09375 C766.950508,197.09375 765.062506,198.070303 763.8125,200.023438 C762.562494,201.976572 761.9375,204.984355 761.9375,209.046875 L761.9375,219.671875 Z M777.09375,215.765625 L761.9375,227.015625 C762.067709,230.765644 762.757806,233.545564 764.007812,235.355469 C765.257819,237.165374 767.106759,238.070312 769.554688,238.070312 C772.106784,238.070312 774.001296,237.080739 775.238281,235.101562 C776.475267,233.122386 777.09375,230.088562 777.09375,226 L777.09375,215.765625 Z M825.609375,246 L814.632812,246 L814.632812,202.367188 L800.257812,207.523438 L800.257812,198.070312 L825.023438,189.125 L825.609375,189.125 L825.609375,246 Z M884.164062,195.179688 L862.015625,246 L850.570312,246 L872.757812,197.992188 L844.203125,197.992188 L844.203125,189.125 L884.164062,189.125 L884.164062,195.179688 Z" id="2017" fill="#E8F5FF"></path>
            </g>
        </g>
    </g>
</svg>